<?xml version="1.0" standalone="no"?>
<!DOCTYPE svg PUBLIC "-//W3C//DTD SVG 20010904//EN"
 "http://www.w3.org/TR/2001/REC-SVG-20010904/DTD/svg10.dtd">
<svg version="1.0" xmlns="http://www.w3.org/2000/svg"
 width="560.000000pt" height="560.000000pt" viewBox="0 0 560.000000 560.000000"
 preserveAspectRatio="xMidYMid meet">
<metadata>
Created by potrace 1.11, written by Peter Selinger 2001-2013
</metadata>
<g transform="translate(0.000000,560.000000) scale(0.100000,-0.100000)"
fill="#000000" stroke="none">
<path d="M3080 5228 c-74 -30 -208 -63 -305 -73 -336 -38 -375 -44 -466 -70
-59 -17 -153 -57 -157 -67 -2 -4 -10 -8 -17 -8 -7 0 -45 -21 -83 -47 -154
-105 -244 -205 -313 -347 l-38 -78 -99 -57 c-336 -195 -631 -478 -837 -806
-149 -237 -271 -544 -321 -809 -2 -12 -6 -32 -8 -46 -28 -143 -35 -249 -31
-465 5 -298 45 -524 140 -781 252 -685 812 -1227 1498 -1452 159 -52 353 -96
497 -111 126 -13 430 -11 550 4 710 90 1332 479 1722 1075 148 225 275 529
332 790 44 203 54 306 53 525 0 160 -17 352 -42 470 -79 381 -253 747 -501
1051 -183 226 -470 460 -737 601 -10 5 -33 44 -52 87 -54 126 -132 214 -303
343 -41 30 -76 62 -79 70 -3 7 3 37 14 66 35 95 17 105 -109 58 l-77 -29 12
32 c15 35 11 66 -7 66 -6 0 -44 -16 -85 -35 -40 -19 -74 -35 -76 -35 -2 0 6
17 18 38 21 39 19 73 -5 71 -7 0 -47 -14 -88 -31z"/>
</g>
</svg>
